<svg width="194" height="35" viewBox="0 0 194 35" fill="none" xmlns="http://www.w3.org/2000/svg">
<path d="M51.1865 13.3254C51.2833 18.9511 47.8487 24.6431 40.0624 24.6431C37.3311 24.6431 34.0546 24.6431 31.3232 24.6431V2.39502C34.0546 2.39502 37.3311 2.39502 40.0624 2.39502C47.6908 2.39502 51.0896 7.82709 51.1865 13.3254ZM35.4814 20.6072H40.0574C45.1123 20.6072 47.115 16.9179 47.0181 13.2948C46.9213 9.82972 44.8881 6.36461 40.0574 6.36461H35.4814V20.6072Z" fill="white"/>
<path d="M57.3572 4.5554C57.3572 7.57717 52.7812 7.57717 52.7812 4.5554C52.7812 1.53362 57.3572 1.53362 57.3572 4.5554ZM53.1278 8.90716V24.6428H57.0056V8.90716H53.1278Z" fill="white"/>
<path d="M72.2682 7.3833L75.132 9.5439L73.3841 11.7707C74.5918 13.1364 75.0351 14.6957 75.0351 16.413C75.0351 18.3544 74.3014 21.0858 71.728 22.2629C74.3319 23.5674 74.9689 25.4426 74.9689 27.4453C74.9689 31.7665 71.6618 34.4366 67.1164 34.4366C62.5709 34.4366 59.167 31.6696 59.167 27.4453H63.0143C63.0143 29.4785 64.8895 30.8135 67.1164 30.8135C69.3432 30.8135 71.091 29.6059 71.091 27.4453C71.091 25.2847 69.0578 24.3012 67.1164 24.3012C62.2193 24.3012 59.167 21.31 59.167 16.4181C59.167 11.521 62.7289 8.46869 67.1164 8.46869C68.3546 8.46869 69.6286 8.62666 70.7089 9.36045L72.2682 7.3833ZM63.0194 16.413C63.0194 19.1443 64.864 20.7647 67.1215 20.7647C69.3483 20.7647 71.1879 19.1137 71.1879 16.413C71.1879 13.7122 69.3432 11.995 67.1215 11.995C64.864 11.9899 63.0194 13.6765 63.0194 16.413Z" fill="white"/>
<path d="M81.741 4.5554C81.741 7.57717 77.165 7.57717 77.165 4.5554C77.165 1.53362 81.741 1.53362 81.741 4.5554ZM77.5116 8.90716V24.6428H81.3894V8.90716H77.5116Z" fill="white"/>
<path d="M90.1136 4.55518V9.00376H94.4348V12.3415H90.0779V19.1137C90.0779 20.6068 90.9034 21.3406 92.1111 21.3406C92.7175 21.3406 93.4156 21.1469 93.9864 20.8616L95.0666 24.1687C93.9558 24.612 93.0334 24.8057 91.8563 24.8362C88.4524 24.9636 86.2306 23.0222 86.2306 19.1137V12.3415H83.3057V9.00376H86.2306V4.96793L90.1136 4.55518Z" fill="white"/>
<path d="M108.687 8.97361H112.402V24.643H108.748L108.56 22.355C107.668 24.1997 105.222 25.0864 103.474 25.122C98.8369 25.1526 95.4023 22.2939 95.4023 16.7956C95.4023 11.3941 98.9948 8.56085 103.571 8.59652C105.67 8.59652 107.673 9.58 108.56 11.1393L108.687 8.97361ZM99.2751 16.7956C99.2751 19.7817 101.344 21.5652 103.917 21.5652C110.022 21.5652 110.022 12.0616 103.917 12.0616C101.344 12.0565 99.2751 13.8044 99.2751 16.7956Z" fill="white"/>
<path d="M118.991 2.42529V24.6428H115.144V2.42529H118.991Z" fill="white"/>
<path d="M137.431 16.8257C137.431 21.3405 134.348 24.9942 129.263 24.9942C124.177 24.9942 121.125 21.3405 121.125 16.8257C121.125 12.3465 124.238 8.65723 129.232 8.65723C134.226 8.65723 137.431 12.3415 137.431 16.8257ZM124.998 16.8257C124.998 19.2105 126.43 21.4374 129.258 21.4374C132.091 21.4374 133.518 19.2105 133.518 16.8257C133.518 14.4715 131.862 12.1835 129.258 12.1835C126.465 12.1835 124.998 14.4715 124.998 16.8257Z" fill="white"/>
<path d="M151.863 7.3833L154.722 9.5439L152.974 11.7707C154.182 13.1364 154.625 14.6957 154.625 16.413C154.625 18.3544 153.896 21.0858 151.318 22.2629C153.927 23.5674 154.559 25.4426 154.559 27.4453C154.559 31.7665 151.252 34.4366 146.706 34.4366C142.161 34.4366 138.757 31.6696 138.757 27.4453H142.604C142.604 29.4785 144.479 30.8135 146.706 30.8135C148.933 30.8135 150.681 29.6059 150.681 27.4453C150.681 25.2847 148.648 24.3012 146.706 24.3012C141.809 24.3012 138.757 21.31 138.757 16.4181C138.757 11.521 142.319 8.46869 146.706 8.46869C147.944 8.46869 149.218 8.62666 150.299 9.36045L151.863 7.3833ZM142.614 16.413C142.614 19.1443 144.454 20.7647 146.716 20.7647C148.943 20.7647 150.783 19.1137 150.783 16.413C150.783 13.7122 148.938 11.995 146.716 11.995C144.459 11.9899 142.614 13.6765 142.614 16.413Z" fill="white"/>
<path d="M160.802 4.5554C160.802 7.57717 156.226 7.57717 156.226 4.5554C156.22 1.53362 160.802 1.53362 160.802 4.5554ZM156.572 8.90716V24.6428H160.45V8.90716H156.572Z" fill="white"/>
<path d="M166.183 18.1918C166.438 20.1282 168.124 21.5296 170.856 21.5296C172.287 21.5296 174.163 20.9894 175.049 20.0671L177.531 22.513C175.875 24.2303 173.174 25.0558 170.794 25.0558C165.388 25.0558 162.183 21.7181 162.183 16.6937C162.183 11.9292 165.424 8.49463 170.509 8.49463C175.753 8.49463 179.029 11.7355 178.423 18.1918H166.183ZM174.703 14.9815C174.448 12.9483 172.858 11.9292 170.636 11.9292C168.537 11.9292 166.82 12.9432 166.249 14.9815H174.703Z" fill="white"/>
<path d="M191.111 13.1366C189.995 12.0869 188.726 11.7404 187.233 11.7404C185.388 11.7404 184.369 12.3111 184.369 13.2997C184.369 14.3188 185.292 14.8896 187.294 15.0169C190.25 15.2055 194 15.873 194 20.0414C194 22.8083 191.743 25.1932 187.264 25.1932C184.782 25.1932 182.306 24.7804 180.018 22.3956L181.923 19.6286C183.034 20.8669 185.577 21.7892 187.325 21.8198C188.787 21.8503 190.153 21.086 190.153 19.9445C190.153 18.8642 189.266 18.4158 187.04 18.2935C184.084 18.0693 180.553 16.989 180.553 13.4322C180.553 9.80909 184.303 8.53516 187.162 8.53516C189.608 8.53516 191.452 9.01416 193.267 10.5989L191.111 13.1366Z" fill="white"/>
<path d="M21.3359 11.1699C24.4204 11.1699 26.9209 8.66942 26.9209 5.58494C26.9209 2.50046 24.4204 0 21.3359 0C18.2514 0 15.751 2.50046 15.751 5.58494C15.751 8.66942 18.2514 11.1699 21.3359 11.1699Z" fill="#35DF32"/>
<path d="M5.55891 0C7.89276 0.117202 9.6406 1.17202 10.6394 3.31224C11.6025 5.38111 11.1795 7.79649 9.59984 9.43732C8.75904 10.3087 8.15264 11.2973 7.9641 12.4999C7.66345 14.4108 8.16284 16.0669 9.55907 17.4427C11.633 19.4861 15.1032 19.6033 17.325 17.4478C18.1862 16.6121 19.1849 16.0618 20.3671 15.8427C23.4399 15.272 26.4668 17.4631 26.8693 20.5613C27.2617 23.5729 25.3355 26.2686 22.3494 26.8291C20.5812 27.1603 19.0015 26.7017 17.6409 25.5195C17.2129 25.1475 16.8103 24.75 16.316 24.4545C14.1503 23.1551 11.4088 23.4557 9.58455 25.2189C8.65712 26.1106 7.58702 26.6813 6.30798 26.875C3.52061 27.303 0.666992 25.3462 0.111555 22.5844C-0.0260301 21.9015 -0.0260304 21.2034 0.0555015 20.5002C0.208374 19.1753 0.855534 18.1358 1.77277 17.2083C2.53204 16.444 2.97027 15.4911 3.13843 14.4363C3.42889 12.5916 2.94479 10.966 1.64028 9.61058C0.911587 8.84622 0.351055 7.98504 0.126842 6.9455C-0.0260307 6.23719 -0.020935 5.51869 0.0402139 4.79C0.218565 2.73132 2.02756 0.524862 4.57543 0.096819C4.90665 0.0407658 5.22768 0.020383 5.55891 0Z" fill="#35DF32"/>
</svg>
